<?xml version="1.0" encoding="UTF-8" standalone="no"?>
<!-- Generator: Adobe Illustrator 17.1.0, SVG Export Plug-In . SVG Version: 6.00 Build 0)  -->

<svg
   xmlns:dc="http://purl.org/dc/elements/1.1/"
   xmlns:cc="http://creativecommons.org/ns#"
   xmlns:rdf="http://www.w3.org/1999/02/22-rdf-syntax-ns#"
   xmlns:svg="http://www.w3.org/2000/svg"
   xmlns="http://www.w3.org/2000/svg"
   xmlns:sodipodi="http://sodipodi.sourceforge.net/DTD/sodipodi-0.dtd"
   xmlns:inkscape="http://www.inkscape.org/namespaces/inkscape"
   version="1.1"
   id="Layer_1"
   x="0px"
   y="0px"
   viewBox="0 0 500 500.00001"
   enable-background="new 0 0 340.1600037 340.1600037"
   xml:space="preserve"
   inkscape:version="0.91 r13725"
   sodipodi:docname="css-minsk-js-logo.svg"
   width="500"
   height="500"><metadata
     id="metadata4258"><rdf:RDF><cc:Work
         rdf:about=""><dc:format>image/svg+xml</dc:format><dc:type
           rdf:resource="http://purl.org/dc/dcmitype/StillImage" /><dc:title></dc:title></cc:Work></rdf:RDF></metadata><defs
     id="defs4256" /><sodipodi:namedview
     pagecolor="#ffffff"
     bordercolor="#666666"
     borderopacity="1"
     objecttolerance="10"
     gridtolerance="10"
     guidetolerance="10"
     inkscape:pageopacity="0"
     inkscape:pageshadow="2"
     inkscape:window-width="1855"
     inkscape:window-height="1056"
     id="namedview4254"
     showgrid="false"
     inkscape:showpageshadow="false"
     borderlayer="true"
     fit-margin-top="0"
     fit-margin-left="0"
     fit-margin-right="0"
     fit-margin-bottom="0"
     inkscape:zoom="0.95518451"
     inkscape:cx="310.37587"
     inkscape:cy="207.45874"
     inkscape:window-x="65"
     inkscape:window-y="24"
     inkscape:window-maximized="1"
     inkscape:current-layer="Layer_1" /><path
     d="m 72.553806,257.97466 84.126774,-23.33339 6.04784,-7.60798 6.54544,4.11511 265.04225,-73.51212 0,162.90403 -361.762304,100.11214 0,-162.67779 z"
     id="path4226"
     inkscape:connector-curvature="0"
     style="clip-rule:evenodd;fill:#fed91c;fill-rule:evenodd" /><g
     id="g4228"
     transform="matrix(2.9652671,0,0,2.9652671,-213.56952,-240.28383)"><path
       d="m 178.42383,198.58887 c 0.52832,-0.13184 1.06738,-0.20215 1.62012,-0.20801 0.55371,-0.007 1.12011,-0.083 1.69824,-0.22754 2.31836,-0.58105 4.20019,-1.54004 5.64941,-2.87695 1.44824,-1.33692 2.56641,-2.93457 3.35645,-4.79102 0.79004,-1.85644 1.3164,-3.92383 1.58008,-6.20215 0.26269,-2.27832 0.3955,-4.65429 0.3955,-7.12988 0,-2.47559 -0.0527,-4.95019 -0.1582,-7.42578 -0.10645,-2.47461 -0.21094,-4.88477 -0.31641,-7.22852 -0.10644,-2.34375 -0.20996,-4.58105 -0.31543,-6.71484 -0.10644,-2.13281 -0.1582,-4.09424 -0.1582,-5.88525 0,-5.63477 0.48633,-10.33838 1.46191,-14.11231 0.97364,-3.771 2.90918,-6.54736 5.80567,-8.32764 0.42187,-0.20996 0.76367,-0.34961 1.02734,-0.41503 0.5791,-0.14551 1.34278,-0.17872 2.29102,-0.0996 0.94824,0.0781 1.88183,0.27832 2.80371,0.60156 0.92187,0.32129 1.71191,0.79492 2.37012,1.41992 0.65918,0.625 0.98828,1.41162 0.98828,2.35986 0,0.52735 -0.0674,1.09717 -0.19824,1.7085 -0.13086,0.61328 -0.27637,1.22852 -0.4336,1.84619 -0.36914,1.46338 -0.73926,3.14795 -1.10644,5.05713 -0.36914,1.90918 -0.70996,3.93018 -1.02637,6.06445 -0.31641,2.13282 -0.58008,4.31885 -0.79004,6.55664 -0.21191,2.23877 -0.31641,4.38428 -0.31641,6.43897 0,3.00195 0.0654,6.18506 0.19727,9.54931 0.13086,3.36329 0.19726,6.5459 0.19726,9.54883 0,3.63379 -0.58007,6.91211 -1.7373,9.83594 -1.15918,2.92285 -2.76465,5.47168 -4.81836,7.64551 -2.05469,2.17383 -4.47851,4.00488 -7.26953,5.49414 -2.79004,1.48926 -5.81738,2.64258 -9.08398,3.45996 -1.05372,0.26465 -2.50098,0.46875 -4.34571,0.61523 -1.84179,0.14551 -3.66015,0.0996 -5.45019,-0.13574 -1.79053,-0.2373 -3.33106,-0.71972 -4.62207,-1.44922 -1.29004,-0.73047 -1.93506,-1.833 -1.93506,-3.30761 0,-0.73829 0.22412,-1.50489 0.67138,-2.30079 0.44825,-0.79687 1.00147,-1.54199 1.6587,-2.23242 0.65918,-0.69238 1.38232,-1.29394 2.17236,-1.80859 0.79004,-0.5127 1.55469,-0.86328 2.29101,-1.04688 0.89649,-0.22461 1.64649,-0.17675 2.25196,0.14649 0.60547,0.32226 1.12012,0.78613 1.54004,1.3916 0.42285,0.60449 0.79004,1.28906 1.10547,2.05273 0.3164,0.7627 0.63281,1.47364 0.94824,2.13282 z"
       id="path4230"
       inkscape:connector-curvature="0"
       style="fill:#302f2f" /><path
       d="m 228.50977,166.45117 c -0.31543,-0.9209 -1.13282,-1.77002 -2.44922,-2.54687 -1.31641,-0.77539 -2.72559,-1.58106 -4.22657,-2.417 -1.50097,-0.83496 -2.92285,-1.71679 -4.26562,-2.64453 -1.34375,-0.92773 -2.22656,-1.97021 -2.64649,-3.1289 -0.42285,-1.20996 -0.50097,-2.46778 -0.2373,-3.77246 0.26367,-1.30225 0.83008,-2.52442 1.69824,-3.66407 0.86914,-1.13818 2.02735,-2.16699 3.47559,-3.083 1.44922,-0.91602 3.12109,-1.61084 5.01758,-2.08594 3.10644,-0.77832 5.85742,-0.91504 8.25586,-0.40918 2.3955,0.50586 3.96191,1.66797 4.70019,3.48437 0.2627,0.67188 0.3418,1.33594 0.23633,1.99414 -0.10547,0.65821 -0.31641,1.25196 -0.63184,1.77735 -0.3164,0.52734 -0.69922,0.97851 -1.14453,1.35351 -0.44824,0.37696 -0.90918,0.62305 -1.38379,0.7417 -1.00097,0.25049 -1.87011,0.14014 -2.60644,-0.33447 -0.73828,-0.47314 -1.42188,-1.0127 -2.05371,-1.61816 -0.63184,-0.60547 -1.23828,-1.16455 -1.81739,-1.67871 -0.58007,-0.51172 -1.23828,-0.67725 -1.97461,-0.49219 -0.89648,0.22412 -1.56835,0.62988 -2.01562,1.21533 -0.44727,0.58691 -0.56641,1.14307 -0.35449,1.66894 0.41992,1.10694 1.42187,2.15967 3.00195,3.15918 1.58008,0.99952 3.27832,1.97071 5.0957,2.91016 1.81641,0.94141 3.51465,1.87256 5.09473,2.79199 1.58008,0.92139 2.55469,1.86231 2.92383,2.82276 0.47363,1.30371 0.56445,2.69043 0.27637,4.15722 -0.29102,1.46875 -0.94825,2.89746 -1.97461,4.28614 -1.02735,1.3916 -2.4502,2.68261 -4.26661,3.87402 -1.81738,1.19238 -3.98925,2.15723 -6.51757,2.89648 -1.42188,0.40821 -2.8711,0.69239 -4.34571,0.85157 -3.63379,0.48828 -6.62304,0.0664 -8.96582,-1.26953 -2.34277,-1.33497 -3.83203,-3.21387 -4.46386,-5.63672 -0.2627,-0.77637 -0.36719,-1.61914 -0.31543,-2.52735 0.0527,-0.90918 0.27636,-1.79394 0.67187,-2.65625 0.39356,-0.86328 0.93457,-1.62988 1.61914,-2.30273 0.68457,-0.67139 1.50098,-1.17871 2.44824,-1.52149 0.58008,-0.25048 1.30371,-0.35254 2.17286,-0.30761 0.86914,0.0469 1.75,0.24707 2.64648,0.60156 0.47461,0.14453 0.95996,0.40527 1.46094,0.7793 0.50097,0.37597 0.88281,0.8457 1.14648,1.41113 0.31543,0.92187 0.32813,1.69531 0.0391,2.32031 -0.29003,0.62695 -0.6455,1.15039 -1.0664,1.57129 -0.42188,0.42188 -0.8291,0.79981 -1.22461,1.13672 -0.39453,0.33496 -0.5127,0.66894 -0.35547,0.99707 0.26269,0.67187 0.81641,1.09961 1.65918,1.2832 0.8418,0.1836 2.18457,0.0449 4.0293,-0.41699 1.68457,-0.42187 2.81738,-1.17969 3.39648,-2.27246 0.5791,-1.09375 0.65723,-2.19238 0.23731,-3.29883 z"
       id="path4232"
       inkscape:connector-curvature="0"
       style="fill:#302f2f" /></g><g
     id="g4234"
     transform="matrix(2.9652671,0,0,2.9652671,-213.56952,-240.28383)"><path
       d="m 120.98389,117.05762 c 0.57519,1.70801 0.78515,3.37402 0.62793,4.99707 -0.15772,1.625 -0.53711,3.09814 -1.13868,4.41894 -0.60205,1.32129 -1.36181,2.44629 -2.27685,3.37207 -0.91602,0.92676 -1.81885,1.51075 -2.7085,1.75293 -0.73291,0.19922 -1.58398,0.26026 -2.55175,0.18457 -0.96875,-0.0757 -1.93653,-0.24902 -2.9043,-0.52441 -0.96924,-0.27295 -1.8584,-0.63867 -2.66992,-1.0957 -0.81153,-0.45752 -1.4126,-0.98536 -1.80567,-1.58497 -0.39209,-0.5996 -0.50976,-1.25976 -0.35351,-1.97998 0.15722,-0.72021 0.73339,-1.49804 1.72754,-2.33349 0.94238,-0.9336 1.72753,-1.97949 2.35595,-3.13965 0.62744,-1.15723 0.73242,-2.41406 0.31397,-3.77051 -0.68164,-2.18652 -2.61817,-2.84717 -5.81006,-1.97998 -2.61817,0.71143 -4.907228,1.92627 -6.870118,3.646 -1.961914,1.71972 -3.624512,3.73828 -4.985352,6.05664 -1.361816,2.31933 -2.420898,4.85205 -3.179687,7.59961 -0.759278,2.74804 -1.269043,5.51367 -1.530274,8.29541 -0.263183,2.78222 -0.263183,5.49316 0,8.13379 0.261231,2.64013 0.732422,4.99853 1.412598,7.07129 0.628418,1.80761 1.59668,3.35107 2.905273,4.6333 1.307129,1.28369 2.838867,2.27832 4.592285,2.98828 1.75293,0.71094 3.67627,1.10596 5.770505,1.18652 2.09326,0.0806 4.26514,-0.18555 6.5166,-0.79687 2.5127,-0.68262 4.84131,-1.56934 6.9878,-2.66162 2.14502,-1.09034 4.05517,-2.31592 5.73095,-3.6753 0.88965,-0.74902 1.7793,-1.4707 2.66944,-2.16504 0.88867,-0.69336 1.54297,-1.04004 1.9624,-1.0415 0.62842,0.1123 1.03272,0.28467 1.21729,0.51709 0.1831,0.2334 0.30078,0.70898 0.35351,1.42773 -0.15723,1.68164 -1.07324,3.51172 -2.74805,5.49219 -2.72265,3.05615 -5.5874,5.37256 -8.59716,6.95313 -3.01026,1.58056 -6.18994,2.82519 -9.53907,3.73535 -4.39648,1.19433 -8.388179,1.75683 -11.972164,1.68554 -3.585937,-0.0713 -6.765625,-0.71679 -9.539062,-1.94042 -2.775391,-1.22266 -5.117188,-2.98633 -7.026368,-5.29297 -1.912109,-2.30371 -3.415527,-5.08789 -4.515136,-8.34668 -0.993164,-2.89307 -1.452149,-6.01563 -1.374024,-9.3711 0.0791,-3.35351 0.603028,-6.71533 1.570801,-10.08496 0.96875,-3.36816 2.354981,-6.68262 4.160645,-9.9414 1.805664,-3.25782 3.977051,-6.2627 6.517089,-9.01514 2.537598,-2.75 5.416504,-5.15723 8.635743,-7.21729 3.218261,-2.06152 6.711914,-3.60302 10.480466,-4.62695 1.98877,-0.54053 3.88672,-0.81592 5.69239,-0.82715 1.80517,-0.01 3.46679,0.31592 4.98486,0.97559 1.51855,0.66113 2.86621,1.66504 4.04394,3.01074 1.17725,1.34619 2.13184,3.10645 2.86573,5.2793 z"
       id="path4236"
       inkscape:connector-curvature="0"
       style="fill:#302f2f" /><path
       d="m 143.59424,149.04004 c -0.31397,-0.98731 -1.13867,-1.94824 -2.47315,-2.88672 -1.33545,-0.93506 -2.77539,-1.90039 -4.31787,-2.89307 -1.54492,-0.9917 -3.01123,-2.03369 -4.39746,-3.12646 -1.38721,-1.09082 -2.29004,-2.25879 -2.70849,-3.50049 -0.41944,-1.29736 -0.50977,-2.68506 -0.27393,-4.16162 0.23437,-1.4751 0.78467,-2.88184 1.64795,-4.21777 0.86328,-1.33594 2.00195,-2.53516 3.41553,-3.59668 1.41357,-1.06202 3.06152,-1.84864 4.9458,-2.36036 1.5708,-0.42675 3.07373,-0.62353 4.51465,-0.59179 1.43896,0.0322 2.74804,0.25683 3.92529,0.6709 1.17773,0.41406 2.19873,0.96972 3.06201,1.66699 0.86377,0.69726 1.47852,1.5332 1.84522,2.50586 0.52197,1.49707 0.41796,2.80957 -0.31397,3.9414 -0.73437,1.13086 -1.64941,1.84522 -2.74805,2.14356 -1.51904,0.41308 -2.66992,0.38672 -3.45507,-0.0776 -0.78467,-0.46435 -1.42676,-1.02344 -1.92334,-1.68066 -0.49756,-0.65479 -0.94141,-1.26856 -1.33448,-1.83936 -0.39306,-0.57129 -0.95556,-0.75683 -1.6875,-0.5581 -0.89062,0.2417 -1.58447,0.64209 -2.08105,1.20019 -0.49756,0.55908 -0.6416,1.12158 -0.43164,1.68457 0.41845,1.18701 1.43896,2.3628 3.06201,3.53174 1.62158,1.16943 3.3623,2.30567 5.2207,3.41113 1.85742,1.1045 3.58496,2.20313 5.18115,3.29444 1.59668,1.09033 2.57764,2.15185 2.94532,3.18115 0.47021,1.39746 0.5747,2.88086 0.31347,4.44824 -0.26269,1.56836 -0.9165,3.11621 -1.96289,4.64258 -1.04785,1.52783 -2.47265,2.93164 -4.27832,4.21191 -1.80566,1.28125 -3.96484,2.31983 -6.47705,3.11573 -0.73437,0.1997 -1.45312,0.38037 -2.15918,0.54443 -0.70654,0.16309 -1.42676,0.28809 -2.15918,0.375 -3.66406,0.54199 -6.67383,0.10547 -9.02881,-1.31738 -2.35498,-1.42188 -3.84716,-3.45899 -4.47461,-6.11231 -0.26171,-0.83203 -0.39306,-1.75781 -0.39306,-2.77441 0,-1.0166 0.15771,-2.0044 0.47119,-2.9668 0.31396,-0.95996 0.79834,-1.82617 1.45215,-2.59668 0.65527,-0.77148 1.45263,-1.33984 2.39502,-1.70996 0.5747,-0.26855 1.34668,-0.30957 2.3164,-0.12109 0.96778,0.18945 1.87061,0.48047 2.7085,0.87402 0.57471,0.12695 1.09863,0.39356 1.56982,0.80176 0.4712,0.40918 0.83692,0.94531 1.09864,1.60742 0.15771,0.52295 0.22265,0.9707 0.19726,1.34522 -0.0273,0.37548 -0.13183,0.71337 -0.31494,1.01709 -0.18359,0.30371 -0.39209,0.57226 -0.62744,0.80615 -0.23584,0.23291 -0.45898,0.46338 -0.66748,0.68896 -0.41943,0.56739 -0.71973,1.00049 -0.90283,1.30518 -0.18457,0.3042 -0.22315,0.69531 -0.11768,1.17529 0.26123,0.72119 0.81055,1.19238 1.64844,1.41699 0.83691,0.22461 2.22412,0.0733 4.16162,-0.45312 1.67334,-0.45508 2.79883,-1.26953 3.37549,-2.44287 0.57471,-1.17237 0.65381,-2.38086 0.23584,-3.62256 z m 26.84961,-7.29492 c -0.31397,-0.98731 -1.125,-1.89746 -2.43311,-2.72754 -1.30908,-0.83106 -2.73584,-1.68457 -4.27881,-2.56543 -1.54443,-0.87891 -2.99658,-1.82617 -4.35742,-2.84131 -1.36181,-1.01318 -2.25146,-2.14111 -2.66992,-3.3833 -0.47022,-1.2832 -0.54932,-2.61719 -0.23535,-4.00293 0.31445,-1.38477 0.94238,-2.68359 1.88476,-3.90088 0.94239,-1.21631 2.1587,-2.30908 3.65088,-3.27978 1.4917,-0.96875 3.1792,-1.71094 5.06348,-2.22266 3.08789,-0.83887 5.80957,-1.01318 8.16504,-0.52442 2.35547,0.49122 3.89844,1.70948 4.63281,3.65528 0.26074,0.77685 0.33887,1.51758 0.23535,2.22461 -0.10547,0.70605 -0.31445,1.34179 -0.6289,1.90674 -0.31348,0.56591 -0.70606,1.03955 -1.17774,1.42138 -0.4707,0.38184 -0.91601,0.62989 -1.33398,0.74365 -1.09961,0.29834 -2.0293,0.21241 -2.78711,-0.25927 -0.75977,-0.47168 -1.44043,-1.03418 -2.04102,-1.69043 -0.60351,-0.6543 -1.17822,-1.24756 -1.72754,-1.77588 -0.54931,-0.52881 -1.1914,-0.69287 -1.92334,-0.49414 -0.89062,0.24219 -1.58447,0.65674 -2.08105,1.24316 -0.49756,0.58838 -0.6416,1.16358 -0.43164,1.72705 0.41846,1.18653 1.4126,2.31397 2.98388,3.3833 1.56983,1.0708 3.25782,2.10889 5.06348,3.11475 1.80567,1.00586 3.48047,2.00635 5.02442,2.99805 1.54296,0.99365 2.49902,2.00439 2.86621,3.0332 0.46972,1.39795 0.60058,2.8877 0.3916,4.46875 -0.20899,1.58252 -0.79785,3.13965 -1.76563,4.67432 -0.96972,1.53418 -2.3164,2.9458 -4.04394,4.23388 -1.72754,1.28711 -3.87305,2.33594 -6.4375,3.14649 -1.41358,0.43945 -2.85352,0.74707 -4.31787,0.91894 -3.08936,0.44434 -5.81006,0.19629 -8.16504,-0.74609 -2.35498,-0.94141 -4.05713,-2.34277 -5.10303,-4.20508 -0.52393,-0.93017 -0.91699,-1.84082 -1.17822,-2.73096 -0.26172,-0.83154 -0.40625,-1.72461 -0.43164,-2.67871 -0.0274,-0.95263 0.0908,-1.87451 0.35351,-2.76513 0.26123,-0.88819 0.67969,-1.68067 1.25635,-2.37403 0.57471,-0.69238 1.38623,-1.2373 2.43311,-1.63574 0.57568,-0.26904 1.3081,-0.38281 2.19873,-0.34277 0.88964,0.0415 1.77832,0.25097 2.66894,0.63037 0.52295,0.14111 1.03272,0.45361 1.53125,0.93896 0.49658,0.48731 0.87549,1.0625 1.13867,1.72412 0.36524,1.03174 0.41797,1.79248 0.15723,2.2876 -0.26318,0.49512 -0.62842,0.97559 -1.1001,1.44238 -0.36621,0.55274 -0.6416,0.97852 -0.82324,1.28321 -0.18506,0.30371 -0.22363,0.69531 -0.11816,1.17578 0.26123,0.7207 0.86328,1.22021 1.80566,1.5 0.94141,0.28174 2.38086,0.1582 4.31836,-0.36816 1.67334,-0.45508 2.82617,-1.31836 3.45361,-2.59083 0.62891,-1.27246 0.73242,-2.52929 0.31397,-3.7705 z"
       id="path4238"
       inkscape:connector-curvature="0"
       style="fill:#302f2f" /></g><g
     id="g4240"
     transform="matrix(2.9652671,0,0,2.9652671,-213.56952,-240.28383)"><path
       d="m 128.72803,178.32617 c 0.36523,-0.0976 0.72363,-0.16308 1.07519,-0.19433 0.35059,-0.0303 0.66504,-0.0342 0.94239,-0.0108 0.27734,0.0234 0.5039,0.0645 0.68066,0.12207 0.1748,0.0586 0.26953,0.13477 0.2832,0.22852 0.041,0.24121 0.0342,0.50195 -0.0205,0.78223 -0.0537,0.28027 -0.11523,0.56347 -0.18164,0.84668 -0.16308,0.50586 -0.3291,1.04004 -0.49707,1.60351 -0.16894,0.56348 -0.3291,1.15235 -0.47656,1.7666 -0.14941,0.61328 -0.27441,1.25977 -0.37598,1.9375 -0.10156,0.67774 -0.16601,1.3916 -0.19238,2.14063 -0.0137,0.39551 -0.0137,0.80176 0,1.21777 0.0137,0.41699 0.0479,0.8418 0.10156,1.27539 0.0937,-0.2207 0.19239,-0.4541 0.29395,-0.69824 0.10059,-0.24414 0.21973,-0.53125 0.35449,-0.86133 0.55469,-1.42285 1.17383,-2.82422 1.85645,-4.2041 0.68261,-1.37988 1.37304,-2.61816 2.06836,-3.71484 0.69629,-1.09571 1.37695,-2.00977 2.03906,-2.74121 0.66309,-0.73047 1.25781,-1.16602 1.78516,-1.30762 0.10742,-0.0283 0.26757,-0.0537 0.47656,-0.0742 0.20898,-0.0225 0.42285,-0.0225 0.63867,-0.004 0.2168,0.0195 0.40918,0.0684 0.57812,0.14942 0.16895,0.0801 0.26661,0.21582 0.29395,0.40429 0.0137,0.0801 -0.0127,0.24219 -0.0811,0.4834 -0.1211,0.43946 -0.28028,0.94336 -0.47559,1.51367 -0.19629,0.57129 -0.41016,1.167 -0.63965,1.78809 -0.27148,0.74512 -0.55078,1.53125 -0.8418,2.35742 -0.29003,0.82715 -0.55468,1.62305 -0.79101,2.38477 -0.23731,0.76367 -0.42285,1.46484 -0.55762,2.10254 -0.13476,0.63867 -0.17676,1.12597 -0.12207,1.46191 0.041,0.24121 0.13867,0.41406 0.29492,0.51856 0.1543,0.10644 0.38184,0.11816 0.67871,0.0391 0.18946,-0.0508 0.39942,-0.1836 0.62891,-0.39942 0.22949,-0.21582 0.46387,-0.47363 0.7002,-0.77539 0.23632,-0.30175 0.46582,-0.61914 0.68945,-0.95117 0.22265,-0.33301 0.42285,-0.64941 0.59863,-0.94824 0.14844,-0.26367 0.30078,-0.38574 0.45606,-0.36426 0.15527,0.0225 0.26074,0.0879 0.31445,0.19922 0.0127,0.10938 0.0166,0.22363 0.01,0.34375 -0.006,0.12109 -0.0303,0.25 -0.0703,0.38672 -0.18945,0.52734 -0.44629,1.04687 -0.77051,1.56055 -0.32519,0.51464 -0.68652,0.99023 -1.08593,1.42578 -0.39942,0.43652 -0.82129,0.80859 -1.26758,1.11621 -0.44629,0.30957 -0.88574,0.52148 -1.31934,0.63769 -0.6084,0.16309 -1.08789,0.17286 -1.43945,0.0283 -0.35156,-0.14453 -0.56738,-0.4707 -0.64844,-0.98144 -0.13574,-0.80371 -0.16601,-1.67774 -0.0918,-2.6211 0.0732,-0.94335 0.18554,-1.85644 0.33496,-2.73632 l 0.60839,-2.49414 c -0.2705,0.36718 -0.53515,0.75293 -0.79101,1.15722 -0.31152,0.50391 -0.64649,1.15039 -1.00391,1.93946 -0.3584,0.78808 -0.78906,1.71972 -1.28906,2.79101 -0.27051,0.56348 -0.50293,1.10547 -0.69922,1.62598 -0.19629,0.52148 -0.40918,1.00293 -0.63867,1.44238 -0.23047,0.43945 -0.49707,0.81543 -0.80176,1.12793 -0.30371,0.3125 -0.68554,0.53711 -1.14648,0.67481 -0.27051,0.0723 -0.52735,9.7e-4 -0.77051,-0.21387 -0.24316,-0.21485 -0.39941,-0.49512 -0.46582,-0.8418 -0.0273,-0.14551 -0.0312,-0.27734 -0.0107,-0.39551 0.0195,-0.11718 0.13867,-0.33105 0.35449,-0.64062 -0.13477,-0.66406 -0.23633,-1.30176 -0.30371,-1.91406 -0.0674,-0.61133 -0.13574,-1.18164 -0.20215,-1.70996 -0.041,-0.6045 -0.0449,-1.16407 -0.0107,-1.67676 0.0342,-0.51367 0.084,-1.00196 0.15234,-1.46875 -0.3789,0.67578 -0.71777,1.57812 -1.01465,2.70703 -0.36523,1.21777 -0.7373,2.36914 -1.11523,3.44922 -0.37891,1.08203 -0.83106,2.06054 -1.35938,2.93652 -0.52734,0.87695 -1.15332,1.62207 -1.87695,2.23535 -0.72266,0.61426 -1.60547,1.06055 -2.64648,1.33887 -1.14942,0.30859 -2.00196,0.30273 -2.55567,-0.0176 -0.55469,-0.32129 -0.88574,-0.84375 -0.99414,-1.57226 -0.0937,-0.53418 -0.007,-1.01661 0.26367,-1.44532 0.27051,-0.42968 0.59473,-0.76855 0.97461,-1.0166 0.37793,-0.24902 0.75293,-0.3916 1.125,-0.42773 0.3711,-0.0371 0.61914,0.0752 0.74024,0.33691 0.0684,0.12207 0.0918,0.24902 0.0713,0.37988 -0.0205,0.13184 -0.0508,0.26563 -0.0908,0.40235 -0.042,0.13769 -0.0781,0.2832 -0.11231,0.43945 -0.0342,0.15625 -0.0303,0.3125 0.0107,0.46973 0.0674,0.24804 0.16504,0.47754 0.29395,0.6875 0.12793,0.20996 0.34766,0.27441 0.65918,0.1914 0.40527,-0.10937 0.77734,-0.33203 1.11523,-0.66601 0.33887,-0.33594 0.64942,-0.75293 0.9336,-1.24902 0.28418,-0.49512 0.54297,-1.06153 0.78027,-1.69922 0.23633,-0.6377 0.46289,-1.32129 0.67969,-2.05079 0.21582,-0.72949 0.43359,-1.48437 0.64941,-2.26367 0.21582,-0.77929 0.43946,-1.56347 0.66992,-2.35351 0.28321,-1 0.60059,-1.94239 0.95215,-2.82715 0.35254,-0.88574 0.74414,-1.68067 1.17774,-2.38379 -0.17676,0.0186 -0.3584,0.0508 -0.54785,0.0937 -0.19043,0.0439 -0.35254,0.083 -0.48731,0.11914 -0.77051,0.20703 -1.52832,0.49414 -2.27246,0.86231 -0.74316,0.36718 -1.39844,0.80468 -1.9668,1.31445 -0.56836,0.50879 -1.00781,1.07422 -1.31836,1.69629 -0.31152,0.62304 -0.41308,1.28418 -0.30468,1.98242 0.0273,0.17578 0.0674,0.31055 0.12109,0.40918 0.0547,0.0977 0.11133,0.17285 0.17285,0.22559 0.0615,0.0537 0.11524,0.10644 0.16211,0.15722 0.0478,0.0498 0.0781,0.1084 0.0918,0.17481 0.041,0.22754 0.007,0.43945 -0.10157,0.63672 -0.10839,0.19628 -0.25,0.37402 -0.42578,0.5332 -0.17675,0.16015 -0.37207,0.29687 -0.58886,0.41015 -0.21582,0.11329 -0.40528,0.19239 -0.56739,0.23633 -0.32422,0.0869 -0.62304,0.0332 -0.89257,-0.16113 -0.27051,-0.19238 -0.45313,-0.5498 -0.54786,-1.07031 -0.10839,-0.74024 -0.0508,-1.4668 0.17286,-2.17871 0.22363,-0.70996 0.57031,-1.38379 1.04394,-2.02246 0.47363,-0.6377 1.05859,-1.24512 1.75586,-1.8252 0.69531,-0.57812 1.46973,-1.10742 2.32227,-1.58789 0.85156,-0.48047 1.7539,-0.91016 2.708,-1.29199 0.95215,-0.38086 1.92969,-0.69922 2.93067,-0.95313 z"
       id="path4242"
       inkscape:connector-curvature="0"
       style="fill:#302f2f" /><path
       d="m 146.37549,185.33594 c 0.041,0.32519 -0.0781,0.73828 -0.35547,1.23926 -0.27734,0.50195 -0.63184,0.99316 -1.06445,1.47167 -0.4336,0.48047 -0.89649,0.91211 -1.38965,1.29688 -0.49317,0.38477 -0.94336,0.63086 -1.34863,0.74023 -0.6084,0.16309 -1.03809,0.15137 -1.28809,-0.0342 -0.25,-0.18457 -0.41602,-0.53906 -0.49707,-1.06347 -0.04,-0.25391 -0.0635,-0.60254 -0.0703,-1.04102 -0.007,-0.43945 0.0127,-0.9209 0.0605,-1.44433 0.0479,-0.52442 0.125,-1.06641 0.23243,-1.62793 0.10839,-0.55957 0.2539,-1.08496 0.43652,-1.5752 0.18262,-0.49023 0.40234,-0.91992 0.66015,-1.29004 0.25586,-0.37011 0.55958,-0.62988 0.91211,-0.78027 0.35157,-0.13574 0.65625,-0.2041 0.91309,-0.20215 0.25586,9.8e-4 0.43262,0.0586 0.52734,0.17285 0.0937,0.11524 0.15528,0.23145 0.18262,0.35059 0.0127,0.26269 0.003,0.50683 -0.0312,0.73242 -0.0342,0.22656 -0.0879,0.46484 -0.16211,0.71582 -0.0742,0.25098 -0.1582,0.52148 -0.25293,0.8125 -0.0947,0.29199 -0.19629,0.6416 -0.30469,1.04883 -0.0947,0.34765 -0.19628,0.74902 -0.30468,1.20508 -0.10742,0.45605 -0.17578,0.91113 -0.20313,1.36621 0.0274,0.21777 0.15625,0.29394 0.38574,0.23242 0.28418,-0.0762 0.61915,-0.35059 1.00391,-0.8252 0.38574,-0.47363 0.78809,-1.01171 1.20801,-1.61425 0.0273,-0.0498 0.0674,-0.10938 0.12109,-0.18067 0.0537,-0.0693 0.0947,-0.10937 0.12207,-0.11621 0.1084,-0.0146 0.21289,0.0166 0.31348,0.0947 0.10254,0.0781 0.16601,0.18261 0.19336,0.31543 z m -2.35352,-5.73242 c -0.32422,0.0732 -0.61816,0.0576 -0.88183,-0.0479 -0.26368,-0.10351 -0.44922,-0.3789 -0.55762,-0.82617 -0.041,-0.36719 -0.0303,-0.71289 0.0303,-1.03711 0.0606,-0.32324 0.15528,-0.61914 0.28418,-0.88476 0.12891,-0.26563 0.28418,-0.48633 0.46582,-0.66114 0.1836,-0.1748 0.37598,-0.28906 0.57813,-0.34277 0.16308,-0.0439 0.3623,-0.0693 0.59961,-0.0771 0.23535,-0.007 0.46582,0.008 0.68945,0.0459 0.22266,0.0391 0.41895,0.10547 0.58789,0.2002 0.16895,0.0957 0.2666,0.22265 0.29395,0.38281 0.0273,0.16113 -0.0742,0.3916 -0.30371,0.69043 -0.16309,0.21191 -0.30469,0.45312 -0.42676,0.72265 -0.1211,0.27149 -0.23633,0.5293 -0.34473,0.7754 -0.1084,0.24707 -0.21973,0.46191 -0.33398,0.64648 -0.11524,0.18457 -0.24024,0.2959 -0.37598,0.33203 l -0.30469,0.0811 z"
       id="path4244"
       inkscape:connector-curvature="0"
       style="fill:#302f2f" /><path
       d="m 156.29443,182.8252 c -0.0137,0.32617 -0.16992,0.72851 -0.46679,1.20605 -0.29785,0.47949 -0.66602,0.95605 -1.10547,1.43164 -0.43946,0.47363 -0.91309,0.89844 -1.41992,1.27148 -0.50684,0.37403 -0.97071,0.61719 -1.38965,0.7295 -0.56739,0.15234 -1.04102,0.15625 -1.41992,0.0137 -0.37891,-0.14356 -0.6084,-0.43555 -0.68946,-0.87598 -0.0537,-0.34961 -0.0176,-0.77539 0.11231,-1.27929 0.12793,-0.50391 0.27343,-1.00098 0.43554,-1.49219 0.16211,-0.49219 0.31446,-0.94824 0.45606,-1.37207 0.1416,-0.42285 0.19922,-0.72852 0.17187,-0.91699 -0.18847,0.008 -0.39843,0.085 -0.62793,0.23046 -0.41992,0.26661 -0.7705,0.66114 -1.05468,1.18555 -0.28418,0.52442 -0.51368,1.08985 -0.68946,1.69727 -0.17675,0.60742 -0.30859,1.20605 -0.39648,1.7959 -0.0879,0.59082 -0.13867,1.07714 -0.15137,1.45898 -0.0146,0.21387 -0.0986,0.37988 -0.2539,0.49902 -0.15625,0.11719 -0.43555,0.23145 -0.8418,0.33985 -0.1084,0.0293 -0.28711,0.0215 -0.53711,-0.0234 -0.25098,-0.0449 -0.46387,-0.24023 -0.63965,-0.58496 -0.0674,-0.13574 -0.12207,-0.2959 -0.16211,-0.48145 -0.041,-0.18457 -0.0674,-0.39453 -0.081,-0.6289 l 0,0.0205 c -0.0264,-0.46875 -0.0166,-0.98242 0.0303,-1.54101 0.0478,-0.55859 0.125,-1.11817 0.2334,-1.67871 0.1084,-0.56153 0.23633,-1.10645 0.38574,-1.63672 0.14844,-0.53027 0.31445,-1.00488 0.49609,-1.42481 0.1836,-0.41992 0.37305,-0.76855 0.56934,-1.04492 0.19531,-0.27636 0.39453,-0.44238 0.59766,-0.49609 0.16211,-0.0439 0.34472,-0.0781 0.54687,-0.10547 0.2041,-0.0254 0.39258,-0.0303 0.56934,-0.0156 0.1748,0.0166 0.32422,0.0566 0.44629,0.12207 0.12109,0.0664 0.19531,0.15722 0.22265,0.27636 0.0127,0.0527 -0.007,0.14942 -0.0605,0.28907 -0.0547,0.14062 -0.11524,0.30078 -0.1836,0.48046 -0.0674,0.17871 -0.13867,0.36914 -0.21289,0.57129 -0.0742,0.20215 -0.12402,0.38965 -0.15137,0.56543 0.21582,-0.32324 0.45215,-0.64258 0.70997,-0.95703 0.25683,-0.3125 0.51953,-0.59765 0.79003,-0.85254 0.27149,-0.2539 0.54493,-0.47363 0.82227,-0.66015 0.27734,-0.1875 0.53711,-0.3125 0.78027,-0.37793 0.20313,-0.0537 0.41016,-0.0811 0.61914,-0.0811 0.20997,-9.7e-4 0.40528,0.0274 0.58887,0.083 0.18164,0.0566 0.33789,0.14355 0.46582,0.26367 0.12793,0.12012 0.20703,0.28027 0.23438,0.4834 0.04,0.3252 -0.0215,0.74805 -0.1836,1.2666 -0.16211,0.52051 -0.34472,1.05957 -0.54785,1.61817 -0.20312,0.55761 -0.38183,1.09179 -0.53711,1.60253 -0.15527,0.51172 -0.21289,0.91407 -0.17187,1.21192 0.0264,0.23144 0.16211,0.31348 0.40527,0.24805 0.25684,-0.0693 0.57422,-0.29102 0.95313,-0.66504 0.3789,-0.375 0.72265,-0.82715 1.03418,-1.3584 l 0.4873,-0.80274 c 0.0127,-0.0176 0.04,-0.0527 0.0811,-0.10547 0.04,-0.0527 0.0869,-0.0859 0.14161,-0.10058 0.17578,-0.0469 0.31152,0.003 0.40625,0.15332 0.0937,0.14941 0.15527,0.29785 0.18261,0.44434 z"
       id="path4246"
       inkscape:connector-curvature="0"
       style="fill:#302f2f" /><path
       d="m 160.04736,182.42871 c -0.041,-0.25488 -0.20312,-0.49219 -0.4873,-0.70996 -0.28418,-0.21777 -0.59473,-0.44238 -0.93262,-0.67383 -0.33887,-0.23047 -0.65039,-0.47656 -0.93359,-0.7373 -0.28418,-0.25977 -0.45313,-0.54981 -0.50684,-0.87207 -0.041,-0.28321 -0.0205,-0.57129 0.0606,-0.86621 0.0811,-0.29493 0.21289,-0.58204 0.39551,-0.86231 0.18261,-0.2793 0.41504,-0.54199 0.69922,-0.78613 0.28515,-0.24414 0.60156,-0.45508 0.9541,-0.63281 -0.0274,-0.0625 -0.0479,-0.12305 -0.0606,-0.1836 -0.0146,-0.0596 -0.0273,-0.12109 -0.041,-0.18847 -0.0674,-0.40137 -0.0371,-0.80176 0.0908,-1.20118 0.12891,-0.39746 0.31836,-0.7705 0.56934,-1.11816 0.25,-0.3457 0.55078,-0.6582 0.90137,-0.93359 0.35156,-0.27637 0.73144,-0.49024 1.13672,-0.64063 0.22949,-0.0762 0.45312,-0.13574 0.66894,-0.17871 0.62207,-0.125 1.22656,-0.1543 1.81543,-0.0889 0.58887,0.0674 1.20703,0.20899 1.85645,0.42676 l -0.14258,0.79492 -0.16211,1.03028 c -0.23047,0.006 -0.50391,-0.005 -0.82129,-0.0322 -0.31836,-0.0264 -0.63867,-0.0566 -0.96289,-0.0889 -0.3252,-0.0312 -0.62305,-0.0605 -0.89356,-0.0859 -0.26953,-0.0254 -0.47363,-0.0342 -0.60839,-0.0264 -0.41895,0.043 -0.79786,0.24218 -1.13575,0.59961 -0.33789,0.35644 -0.51464,0.83007 -0.52734,1.42187 0.6084,-0.0791 1.12207,-0.0342 1.54102,0.13281 0.41992,0.16797 0.66308,0.45997 0.73046,0.875 0.04,0.25586 0.0205,0.48536 -0.0605,0.68848 -0.0811,0.2041 -0.19238,0.38086 -0.33496,0.53125 -0.1416,0.15039 -0.29688,0.27149 -0.46582,0.36621 -0.16993,0.0937 -0.3086,0.15528 -0.41602,0.18457 -0.31152,0.083 -0.64648,0.0127 -1.00488,-0.21387 -0.3584,-0.22558 -0.67188,-0.51953 -0.94336,-0.88085 -0.1084,0.0713 -0.19824,0.1621 -0.27344,0.27246 -0.0742,0.11132 -0.10449,0.2207 -0.0908,0.3291 0.0273,0.20312 0.12793,0.39941 0.30469,0.59082 0.1748,0.1914 0.38476,0.37597 0.62793,0.55566 0.24316,0.18067 0.5039,0.3584 0.78125,0.53614 0.27734,0.17773 0.53711,0.35351 0.78027,0.52636 0.24414,0.17285 0.45313,0.34766 0.62988,0.52344 0.17481,0.17773 0.27735,0.35352 0.30372,0.52832 0.0547,0.36328 0.0137,0.74902 -0.12207,1.15527 -0.13477,0.40723 -0.36133,0.80371 -0.67872,1.19141 -0.31836,0.38574 -0.72363,0.74219 -1.21679,1.07031 -0.49512,0.3291 -1.07324,0.59571 -1.73535,0.80078 -0.36524,0.12696 -0.7295,0.20313 -1.09473,0.23145 -0.91992,0.13379 -1.63965,0.0156 -2.16016,-0.35547 -0.5205,-0.37207 -0.80859,-0.89355 -0.8623,-1.56543 -0.0274,-0.21582 -0.0107,-0.45898 0.0508,-0.72754 0.0606,-0.26758 0.1582,-0.52539 0.29394,-0.77148 0.13575,-0.24707 0.30665,-0.46387 0.51758,-0.65332 0.20899,-0.18946 0.44922,-0.32715 0.71973,-0.41309 0.14941,-0.0537 0.32422,-0.0693 0.52734,-0.0478 0.20313,0.0234 0.39844,0.0869 0.58887,0.18945 0.10742,0.0547 0.21582,0.13184 0.32422,0.22852 0.1084,0.0967 0.17578,0.22558 0.20312,0.38574 0.04,0.25586 0.0127,0.46973 -0.082,0.64258 -0.0937,0.1709 -0.20605,0.31738 -0.33398,0.43554 -0.12891,0.11915 -0.24805,0.22364 -0.35547,0.31543 -0.1084,0.0928 -0.15527,0.18457 -0.1416,0.28028 0.0273,0.18847 0.1416,0.30762 0.34472,0.3584 0.20313,0.0498 0.54102,0.0127 1.01368,-0.11426 0.43359,-0.11621 0.74707,-0.32617 0.94336,-0.63086 0.19629,-0.30469 0.26757,-0.61035 0.21386,-0.91797 z"
       id="path4248"
       inkscape:connector-curvature="0"
       style="fill:#302f2f" /><path
       d="m 169.92529,182.70117 c -0.54199,0.13086 -0.97461,0.11719 -1.29883,-0.04 -0.32519,-0.1582 -0.59179,-0.39843 -0.80078,-0.7207 -0.20996,-0.32129 -0.38574,-0.69141 -0.52734,-1.1084 -0.14258,-0.41601 -0.29492,-0.82715 -0.45703,-1.23242 -0.0937,0.30566 -0.16895,0.60644 -0.22266,0.89941 -0.0547,0.29493 -0.1084,0.58301 -0.16308,0.86328 -0.04,0.17872 -0.0771,0.40625 -0.11133,0.68165 -0.0342,0.27441 -0.0977,0.55078 -0.19238,0.82714 -0.0947,0.27832 -0.21973,0.5293 -0.375,0.75293 -0.15625,0.22266 -0.37598,0.37403 -0.66016,0.44922 -0.14844,0.04 -0.30664,0.0303 -0.47559,-0.0303 -0.16992,-0.0586 -0.32519,-0.15039 -0.46679,-0.27344 -0.14161,-0.12305 -0.26368,-0.26562 -0.36524,-0.42773 -0.10156,-0.16114 -0.15918,-0.32422 -0.17285,-0.48828 -0.0811,-0.42676 -0.0606,-0.8877 0.0615,-1.38184 0.1211,-0.49414 0.21582,-0.98145 0.28418,-1.46191 0.1084,-0.50489 0.21973,-1.10547 0.33399,-1.80176 0.11426,-0.69531 0.24707,-1.43067 0.39551,-2.20508 0.14941,-0.77539 0.31152,-1.55469 0.4873,-2.33594 0.1748,-0.78222 0.37793,-1.50488 0.6084,-2.16894 0.22949,-0.66309 0.48633,-1.23926 0.77051,-1.72852 0.28418,-0.48926 0.60156,-0.82226 0.95312,-1.00098 0.21582,-0.11328 0.45313,-0.17675 0.71094,-0.19042 0.25586,-0.0127 0.5,0.0166 0.72949,0.0879 0.23047,0.0713 0.42676,0.18359 0.58887,0.33544 0.16211,0.15284 0.26367,0.33545 0.30371,0.54932 0.041,0.31055 -0.0684,0.65527 -0.32422,1.03125 -0.20312,0.32129 -0.41894,0.73535 -0.64941,1.24512 -0.2295,0.50976 -0.4502,1.06933 -0.65918,1.67773 -0.20899,0.61035 -0.40528,1.23633 -0.58887,1.88086 -0.18164,0.64356 -0.33398,1.26172 -0.45508,1.85449 0.3916,-0.13378 0.70899,-0.34765 0.95215,-0.64453 0.24414,-0.2959 0.4668,-0.61523 0.66992,-0.95703 0.20313,-0.33984 0.41602,-0.66406 0.63867,-0.96875 0.22364,-0.30371 0.51758,-0.52734 0.88282,-0.66699 0.32421,-0.12891 0.62793,-0.18848 0.91259,-0.18066 0.25782,0.0283 0.45704,0.11132 0.59961,0.24804 0.14063,0.1377 0.22559,0.29297 0.25293,0.46875 0.1084,0.64258 -0.10547,1.29492 -0.63867,1.95508 -0.53467,0.66211 -1.33642,1.31836 -2.40478,1.96777 0.10839,0.26465 0.22363,0.52051 0.3457,0.76856 0.12109,0.24805 0.25293,0.46777 0.39551,0.66016 0.14062,0.19335 0.29394,0.33789 0.45605,0.43457 0.16211,0.0967 0.34473,0.11816 0.54688,0.0635 0.14941,-0.04 0.31884,-0.10254 0.5083,-0.18847 0.18945,-0.0859 0.39258,-0.23438 0.6084,-0.44629 0.23046,-0.24414 0.43554,-0.49512 0.61914,-0.75489 0.18164,-0.25879 0.34375,-0.49707 0.48632,-0.71777 0.14258,-0.2207 0.26465,-0.40332 0.36524,-0.5498 0.10156,-0.14649 0.18555,-0.22852 0.2539,-0.2461 0.1211,-0.0332 0.25586,-0.0342 0.40528,-0.004 0.14941,0.0312 0.22363,0.12207 0.22363,0.27636 0.0137,0.30469 -0.11523,0.70703 -0.38574,1.20606 -0.27051,0.49902 -0.61914,1.00586 -1.04492,1.51953 -0.42578,0.51172 -0.89551,0.97754 -1.40918,1.39453 -0.51514,0.41797 -1.01514,0.69336 -1.50147,0.82324 z"
       id="path4250"
       inkscape:connector-curvature="0"
       style="fill:#302f2f" /></g></svg>