<svg xmlns="http://www.w3.org/2000/svg" viewBox="0 0 120.1 130.2">
  <linearGradient id="a" gradientUnits="userSpaceOnUse" x1="31.8" y1="120.6" x2="110.2" y2="73.2">
    <stop offset="0" stop-color="#FCEE39"/>
    <stop offset="1" stop-color="#F37B3D"/>
  </linearGradient>
  <path d="M118.6 71.8c1-.8 1.4-2 1.5-3.2.2-2.6-1.7-4.7-4.3-5-1.2 0-2.4.5-3.3 1.2l-83.8 46c-2 .7-3.6 2-4.7 4-3 4.8-1.4 11 3.5 14 3.4 2 7.5 1.7 10.7-.3l.7-.5 78-54.8c.3-.3 1.4-1 1.6-1.4z" fill="url(#a)"/>
  <linearGradient id="b" gradientUnits="userSpaceOnUse" x1="48.4" y1="6.9" x2="119.9" y2="69.6">
    <stop offset="0" stop-color="#EF5A6B"/>
    <stop offset=".6" stop-color="#F26F4E"/>
    <stop offset="1" stop-color="#F37B3D"/>
  </linearGradient>
  <path d="M118.8 65L55 2.6C53.6 1 51.6 0 49.3 0c-4.3 0-7.7 3.5-7.7 7.7 0 2 .8 4 2 5.3l1.3 1 67.3 57.7c.8.7 1.8 1.2 3 1.3 2.6 0 4.7-1.8 5-4.4 0-1.3-.6-2.6-1.5-3.5z" fill="url(#b)"/>
  <linearGradient id="c" gradientUnits="userSpaceOnUse" x1="52.9" y1="63.6" x2="10.5" y2="37.2">
    <stop offset="0" stop-color="#7C59A4"/>
    <stop offset=".4" stop-color="#AF4C92"/>
    <stop offset=".8" stop-color="#DC4183"/>
    <stop offset="1" stop-color="#ED3D7D"/>
  </linearGradient>
  <path d="M57 59.5L17 28l-2-1C9.4 25 3 28 .8 33.8c-2 5 .2 10.7 4.6 13.4.7.5 1.3.8 2 1l45.4 18.8c1.8.8 4 .3 5-1.2 1.6-2 1.3-4.6-.6-6z" fill="url(#c)"/>
  <linearGradient id="d" gradientUnits="userSpaceOnUse" x1="52.2" y1="3.7" x2="10.8" y2="37.9">
    <stop offset="0" stop-color="#EF5A6B"/>
    <stop offset=".4" stop-color="#EE4E72"/>
    <stop offset="1" stop-color="#ED3D7D"/>
  </linearGradient>
  <path d="M49.3 0c-1.7 0-3.3.6-4.6 1.5L5 28.3c-.2 0-.3 0-.3.2-1.8 1.2-3.2 3-4 5-2.2 6 .8 12.4 6.6 14.5 3.6 1.4 7.5.7 10.4-1.4.7-.5 1.3-1 1.8-1.6L54 13.8c2-1.4 3-3.6 3-6C57 3.4 53.7 0 49.4 0z" fill="url(#d)"/>
  <path d="M34.6 37.4h51v51h-51z"/>
  <path fill="#FFF" d="M39 78.8h19V82H39z"/>
  <g fill="#FFF">
    <path d="M38.8 50.8l1.5-1.4c.4.5.8.8 1.3.8.6 0 1-.4 1-1.2v-5.3h2.2V49c0 1-.3 1.8-.8 2.3-.5.5-1.3.8-2.3.8-1.5.2-2.3-.4-3-1.2zM45.3 43.8H52v2h-4.4V47h4v1.8h-4V50H52v2h-6.6V44zM55 45.8h-2.5v-2h7.3v2h-2.5V52H55V46zM39 54h4.3c1 0 1.8.3 2.3.7.3.3.5.8.5 1.4 0 1-.4 1.6-1.2 2 1 .3 1.6 1 1.6 2 0 1.4-1.2 2.3-3 2.3H39V54zm4.8 2.6c0-.5-.4-.7-1-.7h-1.5v1.4h1.4c.7 0 1-.3 1-.8zM43 59h-1.8v1.5H43c.7 0 1-.3 1-.8s-.3-.7-1-.7zM46.8 54h4c1.2 0 2 .3 2.6 1 .5.4.7 1 .7 1.8 0 1.3-.6 2-1.6 2.6l2 3h-2.6L50 59.7h-1v2.5H47V54zm3.8 4c.8 0 1.2-.4 1.2-1 0-.7-.5-1-1.2-1H49v2h1.6z"/>
    <path d="M56.8 54H59l3.5 8.4H60l-.6-1.5h-3.2l-.6 1.4h-2.4l3.6-8.4zm2 5l-1-2.3L57 59h1.8zM62.8 54H65v8.3H63V54zM65.7 54h2l3.5 4.4V54h2.3v8.3h-2L68 57.8v4.6h-2.3V54zM73.7 61l1.3-1.4c.8.7 1.7 1 2.7 1 .6 0 1-.2 1-.6 0-.4-.3-.5-1.4-.8-1.8-.4-3-1-3-2.6 0-1.5 1-2.7 3-2.7 1.5 0 2.6.3 3.5 1l-1.2 1.6c-.8-.5-1.6-.8-2.3-.8-.6 0-.8.2-.8.5 0 .4.3.5 1.4.8 1.8.5 3 1 3 2.7 0 1.7-1.3 2.7-3.4 2.7-1.5 0-3-.4-4-1.3z"/>
  </g>
</svg>