<svg xmlns="http://www.w3.org/2000/svg" width="350" height="350" viewBox="-172.6 -31.6 819 150">
    <title>LOVATA</title>
    <polygon points="503.6 -25.7 388.1 -25.7 388.1 15.1 423.5 15.1 423.5 112.5 468.2 112.5 468.2 15.1 503.6 15.1 " fill="#000000"/>
    <polygon points="-127.9 71.7 -127.9 -25.7 -172.6 -25.7 -172.6 112.5 -92.5 112.5 -92.5 71.7 " fill="#000000"/>
    <path d="M-51 44.4c0-0.3 0-0.7 0-1 0-0.3 0-0.7 0-1V44.4zM14.2-29.5c-45 0-64.9 26.5-65.2 72.9 0.3 46.4 20.2 72.9 65.2 72.9 45 0 64.9-26.5 65.2-72.9C79.1-3 59.2-29.5 14.2-29.5zM14.2 77.5c-15.8 0-20.9-11.5-20.9-34.1S-1.6 9.3 14.2 9.3c15.9 0 20.9 11.5 20.9 34.1S30.1 77.5 14.2 77.5zM79.4 43.4c0 0.4 0 0.7 0 1v-2.1C79.4 42.7 79.4 43 79.4 43.4z" fill="#000000"/>
    <polygon points="193.7 -25.7 174.4 18.6 155.1 -25.7 111.4 -25.7 174.4 118.4 237.3 -25.7 " fill="#000000"/>
    <polygon points="370.1 112.5 307.2 -31.6 285.3 18.4 300.7 53.6 269.9 53.6 252 94.7 318.7 94.7 326.5 112.5 " fill="#000000"/>
    <polygon points="646.4 112.5 583.4 -31.6 561.6 18.4 577 53.6 546.2 53.6 528.2 94.7 595 94.7 602.7 112.5 " fill="#000000"/>
    <path d="M637.3-8.5l-2.4-4.8h-1.7v4.8h-2.3v-12.1h4.7c2.5 0 3.9 1.7 3.9 3.7 0 1.7-1 2.8-2.2 3.2l2.7 5.2H637.3zM635.4-18.4h-2.2v3.2h2.2c1.1 0 1.7-0.7 1.7-1.6C637.1-17.8 636.5-18.4 635.4-18.4zM634.7-3.2c-6.2 0-11.3-5-11.3-11.3 0-6.2 5.1-11.3 11.3-11.3 6.2 0 11.3 5.1 11.3 11.3C645.9-8.3 640.9-3.2 634.7-3.2zM634.7-24.3c-5.4 0-9.8 4.4-9.8 9.8 0 5.4 4.4 9.8 9.8 9.8 5.4 0 9.8-4.4 9.8-9.8C644.5-19.9 640.1-24.3 634.7-24.3z" fill="#000000"/>
</svg>
