<svg xmlns="http://www.w3.org/2000/svg" width="250" height="139.63681" viewBox="0 0 426.96629 527.68751">
    <title>SPACE</title>
    <g transform="matrix(2.81911,0,0,-2.81911,-493.68264,636.94775)" fill="#000">
        <g transform="matrix(1.0492282,0,0,1.0492282,232.53192,130.33878)" fill="#000">
            <path d="M0 0 4.4 9.3 5.1 10.7 17.6 36.8 30 10.7 30.7 9.3 35.1 0 0 0ZM42.9-7 46.2-7 20 47.9 15.2 47.9-11-7l2.6 0 5.1 0 41.8 0 4.5 0z" fill="#000"/>
        </g>
        <g clip-path="url(#clipPath3373)" transform="matrix(1.0492282,0,0,1.0492282,-16.881031,-6.5221369)" fill="#000">
            <g transform="translate(168.5479,135.542)" fill="#000">
                <path d="m0 0c-0.5-1-1.2-1.9-2.2-2.7-1-0.8-2.3-1.4-3.8-1.9-1.6-0.5-3.3-0.7-5.3-0.7l-19.5 0 0-6.8c0 0 19.2 0 19.4 0 2.8 0 5.4 0.4 7.7 1.1 2.3 0.8 4.4 1.8 6.1 3.2 1.7 1.4 3.1 3.1 4 5 0.9 1.9 1.4 4 1.4 6.2l0 0.1c0 2-0.3 3.9-1 5.5-0.7 1.7-1.9 3.3-3.6 4.6-1.5 1.2-3.5 2.3-5.9 3.2-2.2 0.9-5 1.6-8.3 2.3-2.8 0.6-5.2 1.2-7 1.9-1.7 0.6-3.1 1.3-4.1 2-0.8 0.6-1.4 1.3-1.7 2-0.3 0.8-0.5 1.7-0.5 2.8l0 0.1c0 1 0.2 1.9 0.7 2.9 0.5 1 1.2 1.8 2.2 2.6 1 0.8 2.2 1.5 3.6 2 1.4 0.5 3.1 0.8 4.9 0.8 0.2 0 20.4 0 20.4 0l0 6.8-20.2 0c-2.6 0-5-0.4-7.2-1.1-2.2-0.7-4.1-1.8-5.8-3.1-1.7-1.3-3-3-4-4.8-1-1.9-1.5-3.9-1.5-6l0-0.1c0-2.1 0.4-4 1.1-5.6 0.8-1.7 2-3.2 3.7-4.5 1.5-1.2 3.5-2.2 5.8-3 2.2-0.8 4.9-1.5 8-2.1 2.9-0.6 5.3-1.3 7.3-1.9 1.8-0.6 3.1-1.3 4.1-2 0.5-1 1.1-1.7 1.4-2.5C0.6 5.5 0.8 4.5 0.8 3.5l0-0.1C0.8 2.1 0.5 1 0 0" fill="#000"/>
            </g>
            <g transform="translate(220.4336,160.6289)" fill="#000">
                <path d="m0 0c0-3.5-1.2-6.1-3.6-7.9-2.6-1.9-6.5-2.9-11.4-2.9l-12.8 0 0 21.6 12.9 0c4.9 0 8.7-1 11.3-3C-1.2 6 0 3.5 0 0.1L0 0Zm7.1 0.2c0 5.5-2 9.9-6 13.1-3.8 3-9.1 4.5-15.8 4.5l-20.2 0 0-55 7.1 0 0 19.4 12.8 0c6.6 0 11.9 1.5 15.8 4.5 4.2 3.2 6.3 7.7 6.3 13.3l0 0.1z" fill="#000"/>
            </g>
            <g transform="translate(372.79,171.4824)" fill="#000">
                <path d="m0 0 0 7-40.1 0 0-55 40.5 0 0 7-33.3 0 0 17.2 29.1 0 0 7-29.1 0 0 16.9L0 0Z" fill="#000"/>
            </g>
            <g transform="translate(305.6904,171.4243)" fill="#000">
                <path d="m0 0 17.2 0 0 7L0 7C-15.2 7-27.5-5.3-27.5-20.5-27.5-35.7-15.2-48 0-48l17.2 0 0 7-17.2 0c-11.3 0-20.5 9.2-20.5 20.5C-20.5-9.2-11.3 0 0 0" fill="#000"/>
            </g>
            <g transform="translate(95.4668,221.5547)" fill="#000">
                <path d="m0 0 0-141.7 127 0 0 7-120 0 0 127.7 305.3 0 0-127.7-125 0-51.3-38.1 4.2-5.6 49.5 36.7 129.7 0L319.3 0 0 0Z" fill="#000"/>
            </g>
        </g>
    </g>
</svg>
