<svg viewBox="0 0 169 40" xmlns="http://www.w3.org/2000/svg"><title>CA8B99E2-77B3-4994-B4A8-D32B9146B211</title><g fill="none" fill-rule="evenodd"><path d="M53.254 26.28c1.694 0 2.684-.902 3.454-1.892v1.672h3.344V14.268h-3.344v6.578c0 1.584-.814 2.398-2.09 2.398-1.276 0-2.024-.814-2.024-2.398v-6.578H49.25v7.634c0 2.706 1.474 4.378 4.004 4.378zm9.29 3.3h3.344v-5.06c.792.946 1.892 1.76 3.674 1.76 2.794 0 5.368-2.156 5.368-6.094 0-3.982-2.618-6.138-5.368-6.138-1.738 0-2.86.814-3.674 1.914v-1.694h-3.344V29.58zm6.16-6.138c-1.562 0-2.86-1.298-2.86-3.256 0-2.002 1.298-3.3 2.86-3.3 1.562 0 2.882 1.298 2.882 3.256 0 2.024-1.32 3.3-2.882 3.3zm8.344 2.618h3.344V10h-3.344v16.06zm11.776.264c3.674 0 6.402-2.75 6.402-6.138 0-3.432-2.706-6.138-6.358-6.138-3.674 0-6.402 2.75-6.402 6.138 0 3.432 2.706 6.138 6.358 6.138zm.044-2.882c-1.848 0-3.102-1.518-3.102-3.256 0-1.782 1.144-3.256 3.058-3.256 1.848 0 3.102 1.518 3.102 3.256 0 1.782-1.144 3.256-3.058 3.256zm11.622 2.838c1.628 0 2.75-.594 3.564-1.496v1.276h3.234v-6.842c0-1.584-.396-2.882-1.276-3.762-.836-.836-2.156-1.32-3.982-1.32-2.002 0-3.278.374-4.576.946l.836 2.552c1.078-.396 1.98-.638 3.256-.638 1.672 0 2.53.77 2.53 2.156v.198c-.836-.286-1.694-.484-2.882-.484-2.794 0-4.752 1.188-4.752 3.762 0 2.376 1.826 3.652 4.048 3.652zm1.012-2.31c-1.078 0-1.826-.528-1.826-1.43 0-1.1.88-1.672 2.31-1.672.814 0 1.562.176 2.134.44v.594c0 1.21-1.056 2.068-2.618 2.068zm13.008 2.31c1.738 0 2.86-.814 3.674-1.914v1.694h3.344V10h-3.344v5.808c-.792-.946-1.892-1.76-3.674-1.76-2.794 0-5.368 2.156-5.368 6.094 0 3.982 2.618 6.138 5.368 6.138zm.858-2.838c-1.562 0-2.882-1.298-2.882-3.256 0-2.024 1.32-3.3 2.882-3.3s2.86 1.298 2.86 3.256c0 2.002-1.298 3.3-2.86 3.3zm14.218 2.882c2.354 0 3.674-.902 4.818-2.156l-1.958-1.98c-.814.77-1.584 1.254-2.706 1.254-1.826 0-2.992-1.452-2.992-3.256 0-1.782 1.188-3.256 2.86-3.256 1.32 0 2.024.484 2.75 1.166l1.958-1.98c-1.1-1.232-2.464-2.068-4.686-2.068-3.608 0-6.182 2.772-6.182 6.138 0 3.41 2.596 6.138 6.138 6.138zm9.84-.044c1.628 0 2.75-.594 3.564-1.496v1.276h3.234v-6.842c0-1.584-.396-2.882-1.276-3.762-.836-.836-2.156-1.32-3.982-1.32-2.002 0-3.278.374-4.576.946l.836 2.552c1.078-.396 1.98-.638 3.256-.638 1.672 0 2.53.77 2.53 2.156v.198c-.836-.286-1.694-.484-2.882-.484-2.794 0-4.752 1.188-4.752 3.762 0 2.376 1.826 3.652 4.048 3.652zm1.012-2.31c-1.078 0-1.826-.528-1.826-1.43 0-1.1.88-1.672 2.31-1.672.814 0 1.562.176 2.134.44v.594c0 1.21-1.056 2.068-2.618 2.068zm8.168 2.09h3.344v-4.356c0-2.816 1.364-4.158 3.586-4.158h.176v-3.498c-1.98-.088-3.08.968-3.762 2.596v-2.376h-3.344V26.06zm14.284.264c2.134 0 3.718-.836 4.818-2.2l-1.914-1.694c-.924.858-1.738 1.21-2.86 1.21-1.496 0-2.552-.792-2.882-2.31h8.206c.022-.308.044-.616.044-.88 0-3.344-1.804-6.402-5.742-6.402-3.432 0-5.83 2.772-5.83 6.138 0 3.652 2.618 6.138 6.16 6.138zm-2.882-7.084c.264-1.518 1.166-2.508 2.552-2.508 1.408 0 2.288 1.012 2.486 2.508h-5.038z" fill="#191919"/><ellipse fill="#FFD800" cx="19.761" cy="19.809" rx="19.761" ry="19.809"/><ellipse fill="#FFF" cx="19.761" cy="19.809" rx="1.708" ry="1.712"/></g></svg>